<svg xmlns="http://www.w3.org/2000/svg" viewBox="0 0 24 24">
  <!-- Caule (Verde) -->
  <path fill="#4CAF50" d="M14.8,2.3c-0.5-0.5-1.4-0.4-2.1,0.3l-1,1C11.3,4,11.2,4.6,11.6,5l1.4-1.4c0.3-0.3,0.8-0.3,1.1,0l1.4,1.4 c0.4,0.4,1,0.3,1.4-0.1l1-1c0.7-0.7,0.8-1.6,0.3-2.1L14.8,2.3z M10,6c0,0,2.2-1.8,3-2.5c0.8,0.7,3,2.5,3,2.5s-2,1-3,1S10,6,10,6z"/>
  <!-- Corpo da Pimenta (Laranja) -->
  <path fill="#fda617" d="M13,7c-2.8,2.5-5,7.8-4,11c1.1,3.3,5.1,4.2,7.7,2.4c2.6-1.8,3.8-5.6,2.6-8.9C18.2,8.2,15.8,4.5,13,7z"/>
  <!-- Brilho (Detalhe) -->
  <path fill="white" fill-opacity="0.4" d="M14.5,8.5c-1,2-1.8,5-1.5,7.5c0.3,2.5,2,4.3,3.5,3.5c1-0.5,1.5-2.5,1-5C17.2,11.5,15.5,6.5,14.5,8.5z"/>
</svg>